<?xml version="1.0" encoding="UTF-8" standalone="no"?>
<!-- Created with Inkscape (http://www.inkscape.org/) -->

<svg
   width="197.3613mm"
   height="199.61621mm"
   viewBox="0 0 197.3613 199.61621"
   version="1.1"
   id="svg1"
   sodipodi:docname="border.svg"
   xmlns:inkscape="http://www.inkscape.org/namespaces/inkscape"
   xmlns:sodipodi="http://sodipodi.sourceforge.net/DTD/sodipodi-0.dtd"
   xmlns="http://www.w3.org/2000/svg"
   xmlns:svg="http://www.w3.org/2000/svg">
  <sodipodi:namedview
     id="namedview1"
     pagecolor="#ffffff"
     bordercolor="#999999"
     borderopacity="1"
     inkscape:showpageshadow="2"
     inkscape:pageopacity="0"
     inkscape:pagecheckerboard="0"
     inkscape:deskcolor="#d1d1d1"
     inkscape:document-units="mm" />
  <defs
     id="defs1" />
  <g
     id="layer1"
     transform="translate(-5.3698938,-8.1346981)"
     style="fill:#181a2a;fill-opacity:1">
    <path
       style="font-weight:600;font-size:11.9792px;font-family:'IBM Plex Mono';-inkscape-font-specification:'IBM Plex Mono Semi-Bold';fill:#181a2a;fill-opacity:1;stroke-width:0.264583"
       d="m 179.88117,164.86783 -0.0963,2.05817 -3.64808,-1.74176 0.0543,-1.16072 z m 2.13002,0.86722 q 0.0291,-0.62223 0.3047,-0.87316 0.27558,-0.25094 0.6585,-0.23301 l 0.35898,0.0168 q 0.38291,0.0179 0.63384,0.29351 0.25093,0.27557 0.22181,0.89781 -0.0291,0.62224 -0.30471,0.87317 -0.27558,0.25093 -0.65849,0.233 l -0.35899,-0.0168 q -0.38291,-0.0179 -0.63384,-0.2935 -0.25093,-0.27558 -0.2218,-0.89782 z m -7.80726,13.95237 q 0.16658,-0.69918 0.56783,-0.93608 0.40124,-0.23689 0.91398,-0.11473 l 0.58265,0.13881 q 0.30298,0.0722 0.5105,0.1832 0.21641,0.12545 0.36899,0.26032 0.15259,0.13487 0.26466,0.28471 0.11207,0.14985 0.21527,0.28527 0.18586,0.25362 0.33235,0.36241 0.15536,0.12322 0.34181,0.16764 0.69918,0.16658 1.02123,-1.18517 l 0.24154,-1.01382 1.02547,0.24432 -0.24154,1.01381 q -0.32206,1.35175 0.37713,1.51833 0.18645,0.0444 0.36902,0.002 0.19146,-0.0283 0.47171,-0.17085 0.15317,-0.0743 0.32077,-0.15755 0.1676,-0.0832 0.36461,-0.13479 0.19701,-0.0516 0.43507,-0.0687 0.24694,-0.003 0.54992,0.0694 l 0.58265,0.13881 q 0.51274,0.12216 0.76406,0.51453 0.25133,0.39237 0.0848,1.09155 l -0.49141,2.06259 -1.02547,-0.24432 0.51917,-2.17911 -0.65257,-0.15548 q -0.45447,-0.10828 -0.7325,-0.0267 -0.27802,0.0815 -0.55551,0.21245 -0.29191,0.1398 -0.61323,0.24797 -0.32131,0.10816 -0.69421,0.0193 -0.48943,-0.11661 -0.71189,-0.52673 -0.21082,-0.40735 -0.13414,-1.09101 l -0.0699,-0.0166 q -0.23983,0.64479 -0.62332,0.91054 -0.37184,0.26853 -0.86127,0.15192 -0.37289,-0.0888 -0.61092,-0.33027 -0.23803,-0.24142 -0.43555,-0.49783 -0.18863,-0.24197 -0.40003,-0.44011 -0.2114,-0.19814 -0.66587,-0.30642 l -0.65257,-0.15547 -0.51917,2.17911 -1.02547,-0.24431 z m 8.4173,9.59445 q -0.23117,0.68056 -0.65279,0.87893 -0.42162,0.19838 -0.9207,0.0289 l -0.56714,-0.19264 q -0.29491,-0.10017 -0.49865,-0.24528 -0.19625,-0.12992 -0.33556,-0.27845 -0.13932,-0.14854 -0.23691,-0.3082 -0.0976,-0.15966 -0.18768,-0.30412 -0.16135,-0.26989 -0.30452,-0.40708 -0.13568,-0.12199 -0.31717,-0.18364 -0.68056,-0.23117 -1.12749,1.08459 l -0.33519,0.98681 -0.99816,-0.33904 0.3352,-0.98682 q 0.44692,-1.31575 -0.23364,-1.54692 -0.18148,-0.0617 -0.37474,-0.0514 -0.18577,0.0255 -0.47812,0.14123 -0.15945,0.0597 -0.33409,0.12689 -0.17464,0.0672 -0.3756,0.10015 -0.20096,0.0329 -0.44708,0.0126 -0.23863,-0.005 -0.53354,-0.10533 l -0.56714,-0.19264 q -0.49908,-0.16952 -0.71265,-0.58365 -0.21357,-0.41413 0.0176,-1.0947 l 0.68195,-2.00766 0.99816,0.33905 -0.72048,2.12109 0.63519,0.21576 q 0.44237,0.15026 0.7268,0.095 0.28443,-0.0552 0.57293,-0.15963 0.30369,-0.11192 0.63371,-0.18959 0.33002,-0.0777 0.69299,0.0456 0.47639,0.16181 0.64823,0.58707 0.18318,0.42912 0.043,1.10262 l 0.0681,0.0231 q 0.29901,-0.61957 0.69431,-0.85219 0.40664,-0.22876 0.88303,-0.0669 0.36297,0.12328 0.5774,0.38589 0.21444,0.26261 0.38714,0.53635 0.16521,0.25854 0.35717,0.47556 0.19196,0.21702 0.63433,0.36728 l 0.63519,0.21576 0.72048,-2.12109 0.99815,0.33904 z m -10.65797,11.09279 q 0.76124,0.43037 1.36559,0.99222 0.60889,0.57817 1.04864,1.2121 0.43385,0.64436 0.68951,1.31182 0.26609,0.67335 0.35217,1.29999 l -0.75463,1.33478 q -0.0684,-0.65791 -0.27508,-1.33897 -0.20669,-0.68106 -0.56619,-1.3109 -0.34907,-0.62394 -0.8523,-1.16991 -0.49871,-0.52964 -1.15568,-0.90106 l -1.00109,-0.56598 q -0.65696,-0.37142 -1.37834,-0.53155 -0.71684,-0.14381 -1.44186,-0.12711 -0.71459,0.0226 -1.40471,0.19664 -0.69012,0.17404 -1.28912,0.45464 l 0.75463,-1.33478 q 0.57088,-0.25522 1.28503,-0.37439 0.71415,-0.11918 1.48994,-0.0796 0.76991,0.05 1.56881,0.26768 0.80343,0.23405 1.56468,0.66443 z m -5.50079,8.74794 q -0.71771,-0.4996 -1.26992,-1.13213 -0.54922,-0.61585 -0.92098,-1.29792 -0.37861,-0.67223 -0.58063,-1.3675 -0.20201,-0.69527 -0.21935,-1.32036 l 0.87602,-1.25846 q 0.007,0.66144 0.1488,1.35882 0.14216,0.69739 0.43141,1.35121 0.29909,0.66067 0.74613,1.23459 0.45004,0.59059 1.06943,1.02176 l 0.94384,0.65702 q 0.6194,0.43117 1.31967,0.64132 0.70326,0.22682 1.41684,0.27108 0.7234,0.0511 1.42677,-0.0577 0.70336,-0.10881 1.32595,-0.33223 l -0.87602,1.25846 q -0.60206,0.19392 -1.32422,0.24586 -0.71233,0.0588 -1.47419,-0.0629 -0.76871,-0.11183 -1.54677,-0.41991 -0.77507,-0.29141 -1.49278,-0.79102 z m -6.54749,9.98703 2.61673,2.66866 -0.9922,0.97288 -2.61672,-2.66866 z m -1.78766,1.75287 2.61673,2.66866 -0.99219,0.97288 -2.61673,-2.66865 z m -10.90729,8.87263 2.07463,3.10884 -1.15586,0.77134 -2.07462,-3.10885 z m -15.14853,3.36033 0.89852,2.11724 2.00696,-0.85173 0.48203,1.13581 -2.00697,0.85173 0.89853,2.11723 -1.23506,0.52414 -0.89852,-2.11723 -2.00696,0.85172 -0.48202,-1.13581 2.00696,-0.85172 -0.89853,-2.11724 z m -12.1571,6.36519 0.31836,1.46317 -3.62866,0.78951 -0.31835,-1.46316 z m -15.30151,-0.21993 1.09755,0.70122 -1.35036,1.90609 2.16331,0.6723 -0.36268,1.2082 -2.13968,-0.68492 0.0614,2.26323 -1.34117,0.0364 -0.0614,-2.26323 -2.09939,0.79995 -0.42766,-1.18676 2.12367,-0.78862 -1.45174,-1.83006 1.05791,-0.7597 1.41581,1.83102 z m -12.813676,-2.65106 -5.604488,9.99212 -1.360016,-0.21946 5.604488,-9.99211 z m -16.676839,2.02891 q 0.811067,0.29339 1.077328,1.00117 0.266261,0.70779 -0.08826,1.68783 -0.354519,0.98004 -1.011973,1.35368 -0.657454,0.37364 -1.468522,0.0802 -0.811067,-0.29339 -1.077328,-1.00118 -0.266261,-0.70778 0.08826,-1.68782 0.354519,-0.98004 1.011974,-1.35368 0.657454,-0.37364 1.468521,-0.0802 z m -0.313769,0.86739 q -0.360475,-0.1304 -0.607831,0.0604 -0.262695,0.19796 -0.417543,0.62603 l -0.187447,0.51818 q -0.154847,0.42806 -0.07552,0.73701 0.06398,0.31614 0.424458,0.44654 0.360474,0.1304 0.62317,-0.0676 0.247356,-0.19078 0.402203,-0.61884 l 0.187447,-0.51818 q 0.154848,-0.42806 0.09086,-0.7442 -0.07932,-0.30895 -0.439798,-0.43935 z m -4.801088,1.79193 -1.137747,-0.41157 2.957262,-2.75191 1.126482,0.40749 z m 5.350478,-3.1346 -1.126482,-0.40749 2.945997,-2.75599 1.137747,0.41157 z m -1.803917,-4.62708 q 0.811067,0.29339 1.077328,1.00118 0.266261,0.70778 -0.08826,1.68782 -0.354519,0.98004 -1.011974,1.35368 -0.657454,0.37364 -1.468521,0.0802 -0.811067,-0.29339 -1.077328,-1.00118 -0.266261,-0.70778 0.08826,-1.68782 0.354519,-0.98004 1.011973,-1.35368 0.657455,-0.37364 1.468522,-0.0802 z m -0.31377,0.86739 q -0.360474,-0.1304 -0.60783,0.0604 -0.262696,0.19797 -0.417543,0.62603 l -0.187447,0.51818 q -0.154847,0.42806 -0.07552,0.73701 0.06398,0.31614 0.424459,0.44654 0.360474,0.1304 0.62317,-0.0676 0.247356,-0.19077 0.402203,-0.61884 l 0.187447,-0.51818 q 0.154847,-0.42806 0.09086,-0.7442 -0.07932,-0.30895 -0.439798,-0.43935 z m -10.975427,-1.10431 -0.628228,1.06195 -4.907644,-2.90327 0.628229,-1.06195 z m 1.347947,-2.27855 -0.628229,1.06195 -4.907644,-2.90327 0.628229,-1.06195 z m -13.938062,-6.19982 -0.814808,0.92655 -4.281915,-3.76552 0.814808,-0.92655 z m 1.748277,-1.98803 -0.814808,0.92655 -4.281914,-3.76552 0.814808,-0.92655 z m -7.394683,-3.09557 -0.897802,0.84638 -3.911416,-4.14907 0.897802,-0.84638 z m 1.926353,-1.81601 -0.897803,0.84637 -3.911416,-4.14906 0.897803,-0.84638 z m -11.823984,-12.8083 -2.257542,2.13991 -2.048873,1.30984 -0.903332,-1.41302 2.048873,-1.30983 2.889874,-1.1508 z m 2.397836,-1.8315 q 0.322619,0.50465 0.246167,0.85211 -0.0829,0.33735 -0.385695,0.53093 l -0.282603,0.18066 q -0.302789,0.19357 -0.643789,0.12721 -0.347452,-0.0764 -0.670071,-0.5811 -0.322619,-0.50465 -0.239714,-0.84201 0.07645,-0.34745 0.379242,-0.54102 l 0.282603,-0.18067 q 0.302789,-0.19357 0.650242,-0.11711 0.341,0.0664 0.663618,0.571 z m -6.266527,-1.62693 -1.097116,0.56457 -2.609089,-5.07017 1.097116,-0.56457 z m 2.354006,-1.21137 -1.097116,0.56457 -2.609089,-5.07016 1.097116,-0.56457 z m -5.901153,-13.72523 -3.021419,-3.02768 -0.09188,0.0272 -0.883594,4.18511 -1.40121,0.41531 1.24674,-5.74208 1.37824,-0.4085 4.174335,4.1353 z m -4.663161,-14.14065 -1.430173,0.14499 -3.33222,-4.83964 1.45401,-0.1474 2.405468,3.53688 0.09534,-0.01 1.646689,-3.94768 1.45401,-0.14741 z m 0.767934,-14.78161 -1.705546,-3.92262 -0.09548,-0.008 -2.352303,3.57247 -1.456051,-0.12565 3.259467,-4.88893 1.432182,0.12358 2.373781,5.37503 z m -2.062987,-7.52687 -1.214004,-0.22045 1.018787,-5.61035 1.214004,0.22045 z m 2.604805,0.47301 -1.214004,-0.22045 1.018787,-5.61035 1.214004,0.22045 z m 2.404537,-14.9696 -1.341909,-0.51546 -0.792032,-5.82224 1.364275,0.52405 0.552257,4.24156 0.08946,0.0344 3.249819,-2.78109 1.364275,0.52405 z m 1.377469,-7.3141 -1.105437,-0.5481 2.53297,-5.10862 1.105437,0.5481 z m 2.371859,1.17602 -1.105437,-0.5481 2.532971,-5.10862 1.105436,0.5481 z m 10.456459,-13.92257 q -0.375697,0.49687 -0.744859,0.54814 -0.369163,0.0513 -0.674929,-0.17994 l -0.286655,-0.21675 q -0.305766,-0.23119 -0.357031,-0.60036 -0.05127,-0.36916 0.324431,-0.86603 0.375697,-0.49687 0.744859,-0.54813 0.369163,-0.0513 0.674929,0.17993 l 0.286655,0.21675 q 0.305766,0.2312 0.357032,0.60036 0.05127,0.36916 -0.324432,0.86603 z m 7.705015,-11.6026 1.526724,-1.38364 1.339015,3.81435 -0.861001,0.78031 z m 10.272886,-9.175355 -0.781602,-1.277226 3.16752,-1.938372 0.781602,1.277225 z m 6.391019,-2.232219 2.481719,-3.483805 -0.04217,-0.08606 -4.273836,-0.173661 -0.643054,-1.312385 5.869559,0.272211 0.632512,1.290871 -3.38168,4.805212 z m 15.426031,-4.383769 q -0.54285,0.149359 -1.009496,0.07896 -0.455096,-0.07357 -0.829648,-0.305979 -0.374552,-0.232404 -0.639104,-0.606892 -0.253003,-0.377665 -0.383295,-0.851215 -0.190671,-0.693 -0.01461,-1.362658 0.176057,-0.669658 0.804032,-1.27729 -0.503069,-0.383409 -0.810644,-0.733636 -0.299203,-0.364954 -0.429495,-0.838504 -0.120758,-0.4389 -0.06075,-0.85299 0.07156,-0.417268 0.287218,-0.762364 0.22721,-0.348274 0.590148,-0.609649 0.362938,-0.261375 0.836488,-0.391667 0.4158,-0.114403 0.794078,-0.09424 0.378279,0.02016 0.697952,0.143424 0.328046,0.108531 0.582759,0.311786 0.251534,0.191704 0.417025,0.431931 l -0.898513,0.843585 q -0.228741,-0.334644 -0.574693,-0.463098 -0.337579,-0.143181 -0.707179,-0.04149 -0.40425,0.111225 -0.580065,0.42051 -0.175815,0.309285 -0.07412,0.678885 l 0.01907,0.0693 q 0.04767,0.17325 0.13518,0.310688 0.08751,0.137439 0.242308,0.293638 0.166346,0.153022 0.403153,0.336354 0.236807,0.183332 0.591437,0.433642 l 1.029239,0.760461 0.894673,0.72294 0.0693,-0.01907 q -0.02255,-0.217433 -0.06619,-0.466339 -0.04364,-0.248906 -0.101998,-0.506184 -0.04999,-0.272005 -0.116726,-0.514555 -0.05836,-0.257278 -0.118742,-0.476728 l 1.92885,-0.530702 0.308252,1.12035 -0.82005,0.225628 q 0.04828,0.446417 0.05556,0.879268 0.01565,0.418123 -0.05677,0.922596 l 1.967789,1.371935 -1.60545,0.441721 -1.261707,-0.882866 -0.08085,0.02224 q 0.05812,0.617651 -0.320094,1.094443 -0.366664,0.473614 -1.094314,0.673819 z m 0.04864,-1.268241 q 0.33495,-0.09216 0.577194,-0.295477 0.242244,-0.203318 0.332869,-0.551286 L 78.5197,84.578018 q -0.286976,0.401992 -0.318691,0.783448 -0.03489,0.369906 0.06998,0.751056 l 0.01589,0.05775 q 0.158892,0.5775 0.568094,0.80037 0.406024,0.211321 0.960424,0.05878 z M 86.7408,86.622202 q -0.554429,0.09799 -1.012457,-0.01569 -0.446232,-0.115768 -0.797435,-0.382146 -0.351203,-0.266378 -0.579615,-0.663942 -0.216615,-0.39965 -0.302098,-0.883301 -0.125098,-0.707781 0.112748,-1.358063 0.237847,-0.650283 0.91984,-1.196593 -0.465052,-0.428728 -0.738564,-0.806157 -0.2638,-0.391309 -0.349284,-0.87496 -0.07923,-0.448262 0.0192,-0.854935 0.110227,-0.408758 0.357181,-0.732198 0.258752,-0.325526 0.64452,-0.551852 0.385768,-0.226327 0.869419,-0.31181 0.424669,-0.07506 0.799409,-0.01964 0.374741,0.05541 0.681502,0.207999 0.316472,0.138702 0.551083,0.364863 0.232526,0.214364 0.374851,0.469001 l -0.973391,0.755957 q -0.196479,-0.354549 -0.528917,-0.51476 -0.322727,-0.174091 -0.700211,-0.107373 -0.412872,0.07297 -0.616812,0.364482 -0.203939,0.291508 -0.13722,0.668991 l 0.01251,0.07078 q 0.03128,0.176945 0.105565,0.321958 0.07429,0.145013 0.213817,0.31499 0.151323,0.167892 0.369967,0.372545 0.218645,0.204653 0.54834,0.486997 l 0.953697,0.853287 0.823224,0.803358 0.07078,-0.01251 q -0.0021,-0.218589 -0.02233,-0.470483 -0.02019,-0.251893 -0.05426,-0.513498 -0.02436,-0.275487 -0.06815,-0.52321 -0.03407,-0.261605 -0.07369,-0.485736 l 1.969992,-0.348189 0.202242,1.144247 -0.837542,0.148033 q 0.0064,0.448975 -0.02683,0.880612 -0.02348,0.417756 -0.142707,0.913259 l 1.831019,1.549764 -1.639694,0.28981 -1.173714,-0.996873 -0.08257,0.01459 q 1.66e-4,0.620379 -0.420936,1.059754 -0.409306,0.437289 -1.152477,0.568642 z m 0.166903,-1.258152 q 0.342094,-0.06046 0.602272,-0.240263 0.260178,-0.179799 0.382915,-0.517779 L 85.846679,82.80232 q -0.323275,0.373425 -0.390486,0.75025 -0.0693,0.365029 -4.92e-4,0.754309 l 0.01042,0.05898 q 0.104248,0.589818 0.49084,0.849941 0.384507,0.248326 0.950733,0.148248 z m 14.498007,1.406986 0.13093,-10.756525 1.31762,0.01604 -0.13094,10.756525 z m 7.02199,0.352697 1.13522,-10.697254 1.31036,0.139059 -1.13523,10.697254 z m 15.48931,-1.557852 0.31982,-3.094097 0.70198,-2.328253 1.60569,0.484127 -0.70198,2.328253 -1.4438,2.755208 z m -0.62711,2.951394 q -0.57346,-0.172902 -0.7417,-0.486375 -0.15676,-0.310015 -0.053,-0.654091 l 0.0968,-0.321139 q 0.10374,-0.344076 0.40575,-0.515769 0.31347,-0.168235 0.88693,0.0047 0.57346,0.172902 0.73023,0.482917 0.16823,0.313473 0.0645,0.65755 l -0.0968,0.321138 q -0.10374,0.344077 -0.41722,0.512311 -0.302,0.171693 -0.87546,-0.0012 z m 13.71359,2.401659 0.85181,-1.636368 q 0.8454,0.399558 1.46737,0.372192 0.63813,-0.03246 0.97001,-0.670005 l 0.0774,-0.148761 q 0.24891,-0.478159 0.0782,-0.850643 -0.16521,-0.38311 -0.61149,-0.615421 -0.49941,-0.259967 -0.9569,-0.133477 -0.45196,0.115865 -0.80116,0.501304 l -0.90421,-1.064905 q 0.2671,-0.279618 0.61877,-0.488204 0.35167,-0.208585 0.76025,-0.293009 0.42474,-0.08952 0.90043,-0.01747 0.49184,0.06696 1.03375,0.349049 0.54192,0.282092 0.90523,0.673789 0.36885,0.381072 0.53828,0.833904 0.17496,0.442206 0.14031,0.923859 -0.0185,0.476558 -0.26739,0.954718 -0.24337,0.467534 -0.59635,0.756467 -0.34745,0.278308 -0.76753,0.410766 -0.40392,0.127364 -0.84307,0.114846 -0.43915,-0.01252 -0.85487,-0.147887 l -0.44249,0.850061 z m -0.64191,2.893556 q -0.53129,-0.276561 -0.63827,-0.615858 -0.0964,-0.333765 0.0696,-0.652538 l 0.15488,-0.297522 q 0.16593,-0.318773 0.49461,-0.431289 0.33929,-0.106986 0.87058,0.169575 0.53129,0.276561 0.62765,0.610326 0.10698,0.339297 -0.0589,0.65807 l -0.15488,0.297521 q -0.16593,0.318773 -0.50523,0.425759 -0.32867,0.112516 -0.85996,-0.164044 z m 12.2392,7.88029 q -0.4894,-0.38539 -0.5334,-0.75549 -0.044,-0.37009 0.19316,-0.67126 l 0.22234,-0.28234 q 0.23716,-0.301164 0.60726,-0.345166 0.3701,-0.044 0.85949,0.341385 0.48939,0.385391 0.53339,0.755481 0.044,0.3701 -0.19316,0.67127 l -0.22233,0.28234 q -0.23717,0.30116 -0.60726,0.34516 -0.3701,0.044 -0.85949,-0.34138 z m 2.631,-3.341039 q -0.48939,-0.385387 -0.53339,-0.755486 -0.044,-0.370099 0.19316,-0.671263 l 0.22234,-0.282341 q 0.23716,-0.301164 0.60726,-0.345166 0.3701,-0.044 0.85949,0.341385 0.48939,0.385387 0.53339,0.755486 0.044,0.370099 -0.19316,0.671263 l -0.22234,0.282341 q -0.23716,0.301164 -0.60726,0.345166 -0.37009,0.044 -0.85949,-0.341385 z m 8.00996,15.360319 -0.8734,-1.00262 q -0.63735,-0.73164 -0.84313,-1.44205 -0.21482,-0.70254 -0.0205,-1.42784 0.20217,-0.71627 0.77179,-1.46667 0.58652,-0.74922 1.53495,-1.57541 1.03876,-0.90487 1.87707,-1.36506 0.83831,-0.46018 1.51463,-0.54095 0.69323,-0.0796 1.2437,0.18755 0.56737,0.26833 1.05521,0.82836 0.49572,0.56906 0.68604,1.13406 0.19033,0.565 0.12831,1.09564 -0.062,0.53064 -0.36737,1.01904 -0.28844,0.48957 -0.75814,0.89873 l -3.36015,2.92706 -0.75537,-0.86713 0.54196,-0.47211 -0.0551,-0.0632 q -0.39366,0.16817 -0.75412,0.10089 -0.34356,-0.0661 -0.64257,-0.40936 -0.46423,-0.53293 -0.2711,-1.24133 0.20217,-0.71627 1.2048,-1.58966 1.00262,-0.8734 1.73081,-0.96758 0.73723,-0.10205 1.20147,0.43087 0.299,0.34324 0.30835,0.7005 0.0172,0.36628 -0.1943,0.7253 l 0.0551,0.0632 0.23485,-0.20458 q 0.76777,-0.66882 0.81201,-1.31106 0.0521,-0.63321 -0.48294,-1.24743 -0.30687,-0.35228 -0.66938,-0.5131 -0.35348,-0.16869 -0.79086,-0.10542 -0.43738,0.0633 -0.9846,0.3652 -0.53935,0.31097 -1.2168,0.9011 l -1.16521,1.01503 q -0.52389,0.45637 -0.87761,0.90748 -0.34585,0.46015 -0.47986,0.92639 -0.1171,0.46741 0.0114,0.94325 0.12855,0.47584 0.55345,0.9636 l 0.87339,1.00263 z m 1.9262,-2.6947 q 0.23605,0.27098 0.52337,0.29077 0.28732,0.0198 0.56733,-0.22413 l 1.3007,-1.13305 q 0.28001,-0.24393 0.29981,-0.53124 0.0198,-0.28732 -0.21627,-0.5583 -0.25179,-0.28905 -0.5933,-0.26163 -0.33365,0.0365 -0.86657,0.50069 l -0.57809,0.50358 q -0.53293,0.46424 -0.61479,0.78974 -0.074,0.33453 0.17781,0.62357 z m 4.22737,11.87437 9.28415,-5.43366 1.88181,3.21533 -0.90981,0.53248 -1.25252,-2.14011 -7.46454,4.36871 1.25253,2.1401 -0.90981,0.53248 z m 17.12175,11.39064 -10.13287,3.61177 -1.25085,-3.50927 0.99298,-0.35394 0.83255,2.33575 8.14692,-2.90389 -0.83255,-2.33575 0.99297,-0.35394 z m -6.89765,17.30651 10.01831,-5.55753 0.21307,1.36103 -10.01831,5.55753 z"
       id="text2"
       transform="matrix(1.1703078,0,0,1.1703078,-14.771437,-80.825677)"
       aria-label="; {} () &quot; ' + - * / % = == != &gt; &lt; &gt;= &lt;= . , -&gt; &amp;&amp; || ! ? : @ [ ] \ " />
  </g>
</svg>
